{"glyphs":{"0":{"ha":981,"x_min":0,"x_max":829,"o":"m 829 218 l 610 0 l 218 0 l 0 218 l 0 1171 l 218 1389 l 610 1389 l 829 1171 l 829 218 m 566 339 l 566 1050 l 490 1126 l 339 1126 l 263 1050 l 263 339 l 339 263 l 490 263 l 566 339 z "},"1":{"ha":531,"x_min":0,"x_max":378,"o":"m 378 0 l 115 0 l 115 1050 l 0 1050 l 0 1186 q 105 1223 64 1198 q 230 1389 205 1284 l 378 1389 l 378 0 z "},"2":{"ha":981,"x_min":0,"x_max":829,"o":"m 829 0 l 0 0 l 0 451 l 566 925 l 566 1050 l 490 1126 l 339 1126 l 263 1050 l 263 951 l 0 951 l 0 1171 l 218 1389 l 610 1389 l 829 1171 l 829 802 l 263 329 l 263 263 l 829 263 l 829 0 z "},"3":{"ha":981,"x_min":0,"x_max":829,"o":"m 829 218 l 610 0 l 218 0 l 0 218 l 0 438 l 263 438 l 263 339 l 339 263 l 490 263 l 566 339 l 566 487 l 490 564 l 263 564 l 263 826 l 490 826 l 566 903 l 566 1050 l 490 1126 l 339 1126 l 263 1050 l 263 951 l 0 951 l 0 1171 l 218 1389 l 610 1389 l 829 1171 l 829 781 l 742 694 l 829 608 l 829 218 z "},"4":{"ha":1036,"x_min":-14,"x_max":907,"o":"m 907 218 l 797 218 l 797 0 l 534 0 l 534 218 l 75 218 l -14 486 l 530 1389 l 797 1389 l 797 487 l 907 487 l 907 218 m 534 487 l 534 886 l 294 487 l 534 487 z "},"5":{"ha":981,"x_min":0,"x_max":828,"o":"m 828 218 l 610 0 l 218 0 l 0 218 l 0 438 l 263 438 l 263 339 l 339 263 l 490 263 l 565 339 l 565 487 l 490 564 l 218 564 l 0 781 l 0 1389 l 828 1389 l 828 1126 l 263 1126 l 263 903 l 339 826 l 610 826 l 828 608 l 828 218 z "},"6":{"ha":981,"x_min":0,"x_max":828,"o":"m 828 218 l 610 0 l 218 0 l 0 218 l 0 1171 l 218 1389 l 610 1389 l 828 1171 l 828 951 l 565 951 l 565 1050 l 489 1126 l 338 1126 l 263 1050 l 263 826 l 610 826 l 828 608 l 828 218 m 565 339 l 565 487 l 489 564 l 263 564 l 263 339 l 338 263 l 489 263 l 565 339 z "},"7":{"ha":971,"x_min":0,"x_max":837,"o":"m 837 1141 l 503 0 l 229 0 l 558 1126 l 263 1126 l 263 951 l 0 951 l 0 1389 l 779 1389 l 837 1141 z "},"8":{"ha":981,"x_min":0,"x_max":828,"o":"m 828 218 l 610 0 l 218 0 l 0 218 l 0 608 l 87 694 l 0 781 l 0 1171 l 218 1389 l 610 1389 l 828 1171 l 828 781 l 741 694 l 828 608 l 828 218 m 565 903 l 565 1050 l 489 1126 l 338 1126 l 263 1050 l 263 903 l 338 826 l 489 826 l 565 903 m 565 339 l 565 487 l 489 564 l 338 564 l 263 487 l 263 339 l 338 263 l 489 263 l 565 339 z "},"9":{"ha":981,"x_min":0,"x_max":828,"o":"m 828 218 l 610 0 l 218 0 l 0 218 l 0 438 l 263 438 l 263 339 l 339 263 l 489 263 l 566 339 l 566 564 l 218 564 l 0 781 l 0 1171 l 218 1389 l 610 1389 l 828 1171 l 828 218 m 566 826 l 566 1050 l 489 1126 l 339 1126 l 263 1050 l 263 903 l 339 826 l 566 826 z "},"\r":{"ha":407,"x_min":0,"x_max":0,"o":""}," ":{"ha":407,"x_min":0,"x_max":0,"o":""},"!":{"ha":488,"x_min":0,"x_max":335,"o":"m 335 1389 l 243 339 l 91 339 l 0 1389 l 335 1389 m 298 0 l 36 0 l 36 263 l 298 263 l 298 0 z "},"\"":{"ha":629,"x_min":0,"x_max":476,"o":"m 476 1457 l 450 1137 l 304 1137 l 278 1457 l 476 1457 m 197 1457 l 172 1137 l 26 1137 l 0 1457 l 197 1457 z "},"#":{"ha":153,"x_min":0,"x_max":0,"o":""},"$":{"ha":981,"x_min":0,"x_max":828,"o":"m 828 291 l 609 106 l 490 106 l 490 0 l 339 0 l 339 106 l 218 106 l 0 291 l 0 477 l 262 477 l 262 393 l 339 329 l 490 329 l 565 393 l 565 519 l 490 583 l 218 583 l 0 768 l 0 1098 l 218 1283 l 339 1283 l 339 1389 l 490 1389 l 490 1283 l 609 1283 l 828 1098 l 828 912 l 565 912 l 565 996 l 490 1060 l 339 1060 l 262 996 l 262 870 l 339 806 l 609 806 l 828 621 l 828 291 z "},"%":{"ha":153,"x_min":0,"x_max":0,"o":""},"&":{"ha":1082,"x_min":0,"x_max":930,"o":"m 930 0 l 760 0 l 646 136 l 511 0 l 218 0 l 0 218 l 0 564 l 157 720 l 89 802 l 89 1171 l 307 1389 l 606 1389 l 825 1171 l 825 951 l 562 951 l 562 1050 l 486 1126 l 428 1126 l 352 1050 l 352 898 l 658 532 l 781 654 l 930 654 l 930 391 l 889 391 l 827 329 l 882 263 l 930 263 l 930 0 m 471 345 l 332 511 l 263 443 l 263 339 l 338 263 l 390 263 l 471 345 z "},"'":{"ha":350,"x_min":0,"x_max":197,"o":"m 197 1457 l 172 1137 l 26 1137 l 0 1457 l 197 1457 z "},"(":{"ha":153,"x_min":0,"x_max":0,"o":""},")":{"ha":153,"x_min":0,"x_max":0,"o":""},"*":{"ha":153,"x_min":0,"x_max":0,"o":""},"+":{"ha":153,"x_min":0,"x_max":0,"o":""},",":{"ha":416,"x_min":0,"x_max":263,"o":"m 263 -62 l 168 -157 l 132 -157 l 132 1 l 0 1 l 0 263 l 263 263 l 263 -62 z "},"-":{"ha":616,"x_min":0,"x_max":464,"o":"m 464 564 l 0 564 l 0 826 l 464 826 l 464 564 z "},".":{"ha":416,"x_min":0,"x_max":263,"o":"m 263 0 l 0 0 l 0 263 l 263 263 l 263 0 z "},"/":{"ha":153,"x_min":0,"x_max":0,"o":""},":":{"ha":153,"x_min":0,"x_max":0,"o":""},";":{"ha":153,"x_min":0,"x_max":0,"o":""},"<":{"ha":153,"x_min":0,"x_max":0,"o":""},"=":{"ha":153,"x_min":0,"x_max":0,"o":""},">":{"ha":153,"x_min":0,"x_max":0,"o":""},"?":{"ha":981,"x_min":0,"x_max":828,"o":"m 828 802 l 545 566 l 545 339 l 282 339 l 282 688 l 565 925 l 565 1050 l 490 1126 l 339 1126 l 262 1050 l 262 951 l 0 951 l 0 1171 l 218 1389 l 610 1389 l 828 1171 l 828 802 m 545 0 l 282 0 l 282 263 l 545 263 l 545 0 z "},"@":{"ha":153,"x_min":0,"x_max":0,"o":""},"A":{"ha":954,"x_min":0,"x_max":829,"o":"m 829 0 l 561 0 l 542 97 l 288 97 l 268 0 l 0 0 l 275 1389 l 554 1389 l 829 0 m 490 359 l 414 741 l 339 359 l 490 359 z "},"B":{"ha":981,"x_min":0,"x_max":828,"o":"m 828 218 l 610 0 l 0 0 l 0 1389 l 610 1389 l 828 1171 l 828 781 l 741 694 l 828 608 l 828 218 m 566 903 l 566 1050 l 490 1126 l 263 1126 l 263 826 l 490 826 l 566 903 m 566 339 l 566 487 l 490 564 l 263 564 l 263 263 l 490 263 l 566 339 z "},"C":{"ha":981,"x_min":0,"x_max":829,"o":"m 829 218 l 610 0 l 218 0 l 0 218 l 0 1171 l 218 1389 l 610 1389 l 829 1171 l 829 951 l 566 951 l 566 1050 l 490 1126 l 339 1126 l 263 1050 l 263 339 l 339 263 l 490 263 l 566 339 l 566 438 l 829 438 l 829 218 z "},"D":{"ha":981,"x_min":0,"x_max":828,"o":"m 828 218 l 610 0 l 0 0 l 0 1389 l 610 1389 l 828 1171 l 828 218 m 566 339 l 566 1050 l 490 1126 l 263 1126 l 263 263 l 490 263 l 566 339 z "},"E":{"ha":981,"x_min":0,"x_max":828,"o":"m 828 0 l 0 0 l 0 1389 l 828 1389 l 828 1126 l 263 1126 l 263 826 l 526 826 l 526 564 l 263 564 l 263 263 l 828 263 l 828 0 z "},"F":{"ha":851,"x_min":0,"x_max":699,"o":"m 699 1126 l 263 1126 l 263 826 l 479 826 l 479 564 l 263 564 l 263 0 l 0 0 l 0 1389 l 699 1389 l 699 1126 z "},"G":{"ha":981,"x_min":0,"x_max":829,"o":"m 829 218 l 610 0 l 218 0 l 0 218 l 0 1171 l 218 1389 l 610 1389 l 829 1171 l 829 951 l 566 951 l 566 1050 l 490 1126 l 339 1126 l 263 1050 l 263 339 l 339 263 l 490 263 l 566 339 l 566 456 l 383 456 l 383 718 l 829 718 l 829 218 z "},"H":{"ha":981,"x_min":0,"x_max":828,"o":"m 828 0 l 566 0 l 566 564 l 263 564 l 263 0 l 0 0 l 0 1389 l 263 1389 l 263 826 l 566 826 l 566 1389 l 828 1389 l 828 0 z "},"I":{"ha":416,"x_min":0,"x_max":263,"o":"m 263 0 l 0 0 l 0 1389 l 263 1389 l 263 0 z "},"J":{"ha":911,"x_min":0,"x_max":758,"o":"m 758 218 l 541 0 l 218 0 l 0 218 l 0 438 l 263 438 l 263 339 l 339 263 l 420 263 l 495 339 l 495 1389 l 758 1389 l 758 218 z "},"K":{"ha":981,"x_min":0,"x_max":829,"o":"m 829 0 l 558 0 l 401 660 l 263 419 l 263 0 l 0 0 l 0 1389 l 263 1389 l 263 951 l 513 1389 l 816 1389 l 591 995 l 829 0 z "},"L":{"ha":816,"x_min":0,"x_max":663,"o":"m 663 0 l 0 0 l 0 1389 l 263 1389 l 263 263 l 663 263 l 663 0 z "},"M":{"ha":975,"x_min":0,"x_max":822,"o":"m 822 0 l 559 0 l 559 568 l 411 132 l 263 568 l 263 0 l 0 0 l 0 1389 l 263 1389 l 411 952 l 559 1389 l 822 1389 l 822 0 z "},"N":{"ha":975,"x_min":0,"x_max":822,"o":"m 822 0 l 564 0 l 263 682 l 263 0 l 0 0 l 0 1389 l 258 1389 l 559 708 l 559 1389 l 822 1389 l 822 0 z "},"O":{"ha":981,"x_min":0,"x_max":828,"o":"m 828 218 l 610 0 l 218 0 l 0 218 l 0 1171 l 218 1389 l 610 1389 l 828 1171 l 828 218 m 566 339 l 566 1050 l 490 1126 l 339 1126 l 262 1050 l 262 339 l 339 263 l 490 263 l 566 339 z "},"P":{"ha":981,"x_min":0,"x_max":828,"o":"m 828 737 l 610 519 l 263 519 l 263 0 l 0 0 l 0 1389 l 610 1389 l 828 1171 l 828 737 m 566 857 l 566 1050 l 490 1126 l 263 1126 l 263 781 l 490 781 l 566 857 z "},"Q":{"ha":981,"x_min":0,"x_max":828,"o":"m 828 216 l 611 1 l 726 -112 l 539 -112 l 427 -1 l 218 -1 l 0 216 l 0 1169 l 218 1388 l 609 1388 l 828 1169 l 828 216 m 565 338 l 565 1049 l 489 1124 l 339 1124 l 262 1049 l 262 338 l 339 262 l 489 262 l 565 338 z "},"R":{"ha":981,"x_min":0,"x_max":829,"o":"m 829 781 l 637 590 l 802 0 l 529 0 l 372 564 l 263 564 l 263 0 l 0 0 l 0 1389 l 610 1389 l 829 1171 l 829 781 m 566 903 l 566 1050 l 490 1126 l 263 1126 l 263 826 l 490 826 l 566 903 z "},"S":{"ha":981,"x_min":0,"x_max":828,"o":"m 828 218 l 610 0 l 218 0 l 0 218 l 0 438 l 263 438 l 263 339 l 338 263 l 489 263 l 566 339 l 566 487 l 489 564 l 218 564 l 0 781 l 0 1171 l 218 1389 l 610 1389 l 828 1171 l 828 951 l 566 951 l 566 1050 l 489 1126 l 338 1126 l 263 1050 l 263 903 l 338 826 l 610 826 l 828 608 l 828 218 z "},"T":{"ha":905,"x_min":0,"x_max":752,"o":"m 752 1126 l 509 1126 l 509 0 l 245 0 l 245 1126 l 0 1126 l 0 1389 l 752 1389 l 752 1126 z "},"U":{"ha":981,"x_min":0,"x_max":828,"o":"m 828 218 l 610 0 l 218 0 l 0 218 l 0 1389 l 263 1389 l 263 339 l 339 263 l 490 263 l 566 339 l 566 1389 l 828 1389 l 828 218 z "},"V":{"ha":1004,"x_min":0,"x_max":852,"o":"m 852 1389 l 549 0 l 304 0 l 0 1389 l 269 1389 l 427 672 l 583 1389 l 852 1389 z "},"W":{"ha":1213,"x_min":0,"x_max":1061,"o":"m 1061 1389 l 922 0 l 657 0 l 530 487 l 404 0 l 139 0 l 0 1389 l 264 1389 l 328 753 l 494 1389 l 567 1389 l 733 753 l 796 1389 l 1061 1389 z "},"X":{"ha":918,"x_min":0,"x_max":766,"o":"m 766 0 l 487 0 l 383 297 l 279 0 l 0 0 l 243 694 l 0 1389 l 279 1389 l 383 1092 l 487 1389 l 766 1389 l 522 694 l 766 0 z "},"Y":{"ha":970,"x_min":0,"x_max":818,"o":"m 818 1389 l 541 437 l 541 0 l 277 0 l 277 437 l 0 1389 l 273 1389 l 409 926 l 543 1389 l 818 1389 z "},"Z":{"ha":919,"x_min":0,"x_max":766,"o":"m 766 1126 l 304 263 l 760 263 l 699 0 l 66 0 l 6 263 l 468 1126 l 0 1126 l 60 1389 l 706 1389 l 766 1126 z "},"Ā":{"ha":407,"x_min":0,"x_max":0,"o":""},"ā":{"ha":407,"x_min":0,"x_max":0,"o":""},"Ă":{"ha":407,"x_min":0,"x_max":0,"o":""},"ă":{"ha":407,"x_min":0,"x_max":0,"o":""},"‘":{"ha":350,"x_min":0,"x_max":197,"o":"m 197 1457 l 172 1137 l 26 1137 l 0 1457 l 197 1457 z "},"’":{"ha":350,"x_min":0,"x_max":197,"o":"m 197 1457 l 172 1137 l 26 1137 l 0 1457 l 197 1457 z "},"“":{"ha":629,"x_min":0,"x_max":476,"o":"m 476 1457 l 450 1137 l 304 1137 l 278 1457 l 476 1457 m 197 1457 l 172 1137 l 26 1137 l 0 1457 l 197 1457 z "},"”":{"ha":629,"x_min":0,"x_max":476,"o":"m 476 1457 l 450 1137 l 304 1137 l 278 1457 l 476 1457 m 197 1457 l 172 1137 l 26 1137 l 0 1457 l 197 1457 z "},"◼":{"ha":339,"x_min":0,"x_max":0,"o":"m 0 0 l 0 0 l 0 0 l 0 0 l 0 0 z "}}}
